PathFileType	4	(X/Y/Z)	OpenSim_Sub10_EMGStiffKnee_Gyro.trc
DataRate	CameraRate	NumFrames	NumMarkers	Units	OrigDataRate	OrigDataStartFrame	OrigNumFrames
100	100	30	8	m	100	7325	8371
Frame#	Time	torso_imu_offset_imu	pelvis_imu_offset_imu	tibia_r_imu_offset_imu	femur_r_imu_offset_imu	tibia_l_imu_offset_imu	femur_l_imu_offset_imu	toes_r_imu_offset_imu	toes_l_imu_offset_imu
				X1	Y1	Z1	X2	Y2	Z2	X3	Y3	Z3	X4	Y4	Z4	X5	Y5	Z5	X6	Y6	Z6	X7	Y7	Z7	X8		Y8	Z8	

7325	73.24000000	0.67082500	-0.25104800	0.39377400	0.47750700	0.19268400	0.10527900	-0.08964000	-0.10149300	-0.45933200	-0.64151900	-0.01441400	-0.79752700	1.24944700	0.22163500	-3.42767700	0.23088800	0.49320200	-0.63589200	-0.02679900	0.08894800	-0.07034700	0.27329900	3.21052400	0.58941800
7326	73.25000000	0.65143100	-0.28683200	0.37143100	0.42156300	0.19316300	0.14401800	0.03761500	-0.09354700	-0.46949300	-0.63989200	0.03367000	-0.72631200	0.85870300	0.25621000	-3.53231800	0.22899600	0.48991500	-0.69142800	-0.01392900	0.07137900	-0.06752800	0.23774300	2.95908800	0.48145600
7327	73.26000000	0.58925800	-0.30609400	0.34018700	0.37170600	0.21084300	0.15925700	0.10762500	-0.11602800	-0.50429500	-0.49064100	0.05090800	-0.69238800	0.53818600	0.31389100	-3.59480700	0.23636400	0.48707100	-0.73494100	-0.01645800	0.07189800	-0.07677100	0.26931900	2.83006100	0.29978100
7328	73.27000000	0.53699400	-0.31478500	0.31285000	0.32757700	0.21892900	0.16309300	0.06958300	-0.11885600	-0.54553300	-0.23554200	0.03449500	-0.67598300	0.30168000	0.39614100	-3.60251500	0.22574600	0.49542700	-0.75444700	-0.02212200	0.06360500	-0.07877000	0.24795100	2.79252300	0.07479300
7329	73.28000000	0.44939300	-0.29518500	0.29173500	0.29987400	0.20819600	0.17317300	-0.02518100	-0.09055400	-0.56866000	0.01858600	0.02535500	-0.70967200	0.08022100	0.42416600	-3.56006400	0.20165000	0.49396200	-0.77018200	-0.02445900	0.04623500	-0.07170500	0.12765300	2.74749500	-0.16051600
7330	73.29000000	0.38556800	-0.25539400	0.30159300	0.27212400	0.18045200	0.16151800	-0.12502300	-0.05926400	-0.56090500	0.23760900	0.01875200	-0.76998200	-0.12428700	0.40713900	-3.48552400	0.18258800	0.49210500	-0.77604900	-0.02288200	0.05010600	-0.06074600	0.04689100	2.63291600	-0.41092100
7331	73.30000000	0.34704100	-0.25023200	0.29063400	0.23605800	0.15388200	0.14142900	-0.22869400	-0.04474900	-0.54200400	0.43136200	0.00787500	-0.81141400	-0.28524500	0.35847100	-3.41344200	0.16712700	0.47323600	-0.75711200	-0.03199600	0.03233100	-0.05416200	0.03183500	2.54526800	-0.70636400
7332	73.31000000	0.31958300	-0.23149900	0.27297300	0.21336100	0.13857200	0.10778900	-0.31199200	-0.03576600	-0.54015000	0.61452600	-0.00794600	-0.82473400	-0.41651900	0.32448600	-3.33196100	0.13367700	0.45242300	-0.71286600	-0.07004500	0.01666800	-0.02739900	0.04484400	2.47725700	-0.99860900
7333	73.32000000	0.31992400	-0.21231300	0.25703000	0.19843000	0.12639500	0.08117100	-0.33986300	-0.03373800	-0.56332700	0.75409500	-0.03168300	-0.83556900	-0.48954900	0.34213200	-3.23243000	0.11031000	0.45575600	-0.64529300	-0.09060000	-0.00306300	-0.01120000	0.01545300	2.39136100	-1.25458300
7334	73.33000000	0.32744200	-0.20362300	0.23515500	0.18307500	0.10161800	0.06050600	-0.31032200	-0.03622400	-0.58377500	0.83593900	-0.04531200	-0.86937000	-0.54127600	0.39600200	-3.11759600	0.09231000	0.46253000	-0.60330600	-0.06083600	-0.02297600	-0.01137200	-0.00052100	2.26239900	-1.45214200
7335	73.34000000	0.34563700	-0.19291600	0.21106200	0.16828700	0.07063300	0.04523900	-0.24872900	-0.03205500	-0.57881300	0.88096800	-0.04029000	-0.91949700	-0.56599900	0.41299500	-3.00148100	0.03862300	0.45879800	-0.58671800	-0.06722500	-0.05985900	-0.01973400	-0.04631800	2.08465900	-1.58799300
7336	73.35000000	0.32701900	-0.18694000	0.18363300	0.14289900	0.04847800	0.03505700	-0.21670000	-0.00634300	-0.54564400	0.91154500	-0.01103200	-0.96438600	-0.61194400	0.41707800	-2.91726100	-0.06970500	0.40575800	-0.60016900	-0.07398400	-0.07130400	-0.01130900	-0.14052400	1.92249300	-1.71815200
7337	73.36000000	0.30175700	-0.14185600	0.15990900	0.11886600	0.04581500	0.02462800	-0.12139600	-0.00181600	-0.51637300	0.90530900	0.01683100	-0.94885000	-0.70589700	0.41951900	-2.83685200	-0.17679600	0.30317400	-0.64675500	-0.05457300	-0.09991500	-0.03260000	0.00524000	1.81704600	-1.82308300
7338	73.37000000	0.29557000	-0.10832000	0.13512200	0.09381300	0.03665500	0.00510200	0.00402500	-0.00292700	-0.51679500	0.85677000	0.01011700	-0.90543600	-0.74039900	0.44881400	-2.71905400	-0.30787600	0.16926700	-0.70572000	-0.05285800	-0.12060000	-0.05557100	-0.13192800	1.77402500	-1.87207400
7339	73.38000000	0.29185800	-0.09621000	0.11916500	0.06703900	0.02840800	-0.00663100	0.02985800	-0.01102200	-0.52767200	0.75272900	-0.02966400	-0.86428000	-0.78890600	0.48773300	-2.54947300	-0.41421900	0.02589600	-0.74629900	-0.04414700	-0.14652500	-0.07712900	-0.07278600	1.67104700	-1.84520900
7340	73.39000000	0.28282000	-0.08835900	0.10176800	0.03776900	0.01220600	-0.01722000	-0.03788900	-0.00530100	-0.51558700	0.59360700	-0.07036600	-0.84295700	-0.76412700	0.46810800	-2.35966100	-0.52153000	-0.10991000	-0.78343700	-0.00862900	-0.15831300	-0.10515800	-0.14196200	1.54355400	-1.69418400
7341	73.40000000	0.26509300	-0.07589200	0.08292300	-0.01195800	-0.01064800	-0.03198400	-0.12364900	0.00126300	-0.49090500	0.40312700	-0.08035100	-0.83560300	-0.59224500	0.38838400	-2.17752700	-0.69351300	-0.23396100	-0.81080100	0.01176000	-0.17499900	-0.11030100	-0.31066500	1.43463900	-1.47208900
7342	73.41000000	0.25234500	-0.07154000	0.06552000	-0.07182100	-0.02915200	-0.05475400	-0.22372100	0.01955600	-0.50506000	0.21195600	-0.06343700	-0.80703200	-0.53220000	0.30797000	-1.99482100	-0.93995000	-0.32613700	-0.83192200	-0.03744700	-0.20192800	-0.09539800	-0.27706300	1.32634500	-1.25646200
7343	73.42000000	0.23585800	-0.06077300	0.05299100	-0.14707000	-0.03910900	-0.06266500	-0.29767000	0.01984400	-0.57753700	0.01387000	-0.03754700	-0.75571600	-0.60887400	0.25231100	-1.80862700	-1.13646200	-0.37011700	-0.85175100	-0.12409300	-0.23971800	-0.09823200	-0.12214200	1.21108800	-1.06079900
7344	73.43000000	0.20897500	-0.05737900	0.03350400	-0.23027900	-0.04988900	-0.08003900	-0.37981600	0.02336300	-0.67475800	-0.20653600	-0.01429000	-0.70306500	-0.64026500	0.16818100	-1.60713000	-1.26762800	-0.33986500	-0.85794500	-0.08870400	-0.28239200	-0.12332100	-0.00990600	1.10233900	-0.88151500
7345	73.44000000	0.17604900	-0.05891200	0.02359700	-0.33684300	-0.06939700	-0.08794600	-0.47243300	0.03275700	-0.71535400	-0.41519800	0.00256200	-0.66673200	-0.58305100	0.09395700	-1.37702700	-1.30524500	-0.25252300	-0.87291900	-0.05549700	-0.29538500	-0.15634000	-0.04265200	1.02399600	-0.72530400
7346	73.45000000	0.14328600	-0.05649500	0.01139900	-0.43030800	-0.08836000	-0.10258000	-0.52007200	0.07339100	-0.71182300	-0.59395400	0.02347600	-0.62570900	-0.48031200	0.05697700	-1.13068900	-1.26964400	-0.15171100	-0.85806900	-0.07636400	-0.31784300	-0.18679000	-0.05644700	0.91477900	-0.61605700
7347	73.46000000	0.09684700	-0.04708700	-0.00746300	-0.51351100	-0.12729300	-0.11694700	-0.50301500	0.07814900	-0.72826400	-0.72169600	0.03459400	-0.55979800	-0.37801700	0.01559800	-0.89059100	-1.19148800	-0.07578300	-0.84855400	-0.09170300	-0.38014200	-0.24284400	-0.03045400	0.76148500	-0.54748800
7348	73.47000000	0.03503600	-0.02939400	-0.03385200	-0.60018300	-0.16119000	-0.12020000	-0.46759800	0.01835400	-0.78639900	-0.79747000	0.04190400	-0.47835300	-0.32503500	-0.06580900	-0.69168800	-1.09039400	-0.03648100	-0.82946800	-0.02317300	-0.44290200	-0.31884600	0.00520600	0.55245600	-0.52649600
7349	73.48000000	-0.03355200	-0.00233300	-0.06258700	-0.67530300	-0.19461400	-0.12536200	-0.44818600	-0.00579800	-0.84321400	-0.85282100	0.05549000	-0.41496700	-0.33452200	-0.15810100	-0.52745400	-0.96194600	-0.02799900	-0.80949200	0.11276900	-0.46487800	-0.36409400	0.05554500	0.35778200	-0.53000600
7350	73.49000000	-0.10675600	0.02321600	-0.10310700	-0.72203900	-0.23476500	-0.12522400	-0.44183500	0.00463500	-0.88657800	-0.90203300	0.07821800	-0.37563000	-0.35481600	-0.22987300	-0.37470700	-0.81471700	-0.06977500	-0.76020200	0.07547900	-0.53013100	-0.36844000	-0.00819600	0.21260800	-0.52656800
7351	73.50000000	-0.18670300	0.03514600	-0.15199500	-0.75454200	-0.27023000	-0.13486400	-0.43223600	-0.01733200	-0.92412500	-0.91700700	0.11431700	-0.33700200	-0.38091000	-0.27695000	-0.21993300	-0.67845500	-0.15235000	-0.68204900	0.07834200	-0.57934800	-0.32811000	-0.03375000	0.09852200	-0.52016900
7352	73.51000000	-0.28339300	0.07129900	-0.20540800	-0.76848000	-0.31232900	-0.13609900	-0.43535500	-0.01092200	-0.96858300	-0.91406300	0.15238500	-0.33029300	-0.43466400	-0.31434400	-0.08637300	-0.54594800	-0.24987900	-0.56359700	-0.13223300	-0.66697900	-0.26963800	0.02185600	0.00200500	-0.51430400
7353	73.52000000	-0.38170600	0.10974500	-0.25493400	-0.77985700	-0.36244700	-0.13819200	-0.41959000	0.02765900	-1.04805100	-0.90692900	0.17490800	-0.30880100	-0.45921800	-0.31547100	0.03174900	-0.43634600	-0.32192400	-0.42821100	-0.09256900	-0.74028300	-0.22225100	0.03872900	-0.12418900	-0.48132400
7354	73.53000000	-0.46908300	0.15956300	-0.29975500	-0.79271900	-0.41226700	-0.13898600	-0.40388800	0.04104600	-1.12834000	-0.90214900	0.20225300	-0.27186700	-0.54990300	-0.34172400	0.14060700	-0.34720600	-0.35980700	-0.31529400	-0.13569000	-0.82559700	-0.17993600	0.06073900	-0.29270700	-0.42584600
